<?xml version="1.0" encoding="UTF-8"?>
<svg width="160px" height="160px" viewBox="0 0 160 160" version="1.1" xmlns="http://www.w3.org/2000/svg" xmlns:xlink="http://www.w3.org/1999/xlink">
    <title>Group</title>
    <defs>
        <polygon id="path-1" points="0 0 82 0 82 77 0 77"></polygon>
    </defs>
    <g id="Page-1" stroke="none" stroke-width="1" fill="none" fill-rule="evenodd">
        <g id="Group">
            <rect id="Rectangle" fill="#5A5A5A" x="0" y="0" width="160" height="160"></rect>
            <g id="Group-3" transform="translate(39.000000, 42.000000)">
                <mask id="mask-2" fill="white">
                    <use xlink:href="#path-1"></use>
                </mask>
                <g id="Clip-2"></g>
                <path d="M59.2200122,55.6513842 C59.2200122,57.2171281 58.8991357,58.4835714 58.2618705,59.4529477 C57.6223613,60.4223241 56.801097,61.183977 55.7980775,61.7423735 C54.792814,62.3030036 53.5833564,62.6760125 52.1697047,62.8614001 C50.7515652,63.0490213 49.3154745,63.1405984 47.8547011,63.1405984 L32.5199457,63.1405984 L32.5199457,44.8095574 L48.1284559,44.8095574 C50.9580032,44.8095574 53.5137958,45.4438958 55.7980775,46.7103392 C58.0778714,47.979016 59.2200122,49.6921766 59.2200122,51.8520543 L59.2200122,55.6513842 Z M32.5199457,15.0805267 L44.8433985,15.0805267 C48.4022106,15.0805267 51.2788797,15.6031858 53.4689179,16.6462705 C55.6612001,17.6893552 56.7562192,19.6281079 56.7562192,22.4580615 L56.7562192,24.9172398 C56.7562192,27.0793511 55.932711,28.7925116 54.2901823,30.0567213 C52.6476536,31.3253982 50.3656158,31.9575031 47.4440689,31.9575031 L32.5199457,31.9575031 L32.5199457,15.0805267 Z M77.7568009,43.6927644 C74.9250097,41.0102275 71.047565,38.9262917 66.1177351,37.4342562 C68.1237742,36.9138306 69.950302,36.1499442 71.5928306,35.1425968 C73.2376032,34.1374831 74.6265721,33.0028214 75.7709568,31.7341445 C76.9108538,30.4677012 77.8016788,29.1454182 78.4411879,27.7672956 C79.0784531,26.389173 79.3993296,25.06689 79.3993296,23.7982131 L79.3993296,21.3412684 C79.3993296,18.2857227 78.6902598,15.5116088 77.2766081,13.0144595 C75.8607125,10.5195439 73.8748684,8.37530124 71.3213197,6.58619879 C68.7632833,4.79932992 65.0608621,3.42120731 61.4100504,2.45183095 C57.7592387,1.48468818 53.695551,1 49.223475,1 L13.9584742,1 L10.339077,1 L3.52213419,1 L10.339077,8.02239464 L10.339077,31.9575031 L1,31.9575031 L10.339077,43.8178452 L10.339077,69.9753718 L3.52213419,77 L10.339077,77 L13.9584742,77 L51.5526345,77 C60.5887861,77 68.4222118,75.3784165 73.8524295,72.1374831 C79.2826472,68.8965497 82,64.1457121 82,57.8872039 L82,53.6411568 C82,49.6921766 80.5841044,46.3753012 77.7568009,43.6927644 L77.7568009,43.6927644 Z" id="Fill-1" fill="#FFFFFF" mask="url(#mask-2)"></path>
            </g>
        </g>
    </g>
</svg>